# Blender v2.79 (sub 0) OBJ File: ''
# www.blender.org
mtllib Crystal_Low.mtl
o Crystal_Group20682.001
v 0.044244 -0.877089 0.272714
v 0.457714 -0.247563 0.010230
v 0.241486 -0.627083 -0.513216
v -0.513451 2.818719 0.098511
v 0.503103 -0.649732 -0.046198
v 0.591579 -0.440470 -0.116238
v 0.614197 1.779532 0.212630
v -0.522767 1.247274 -0.456610
v -0.493399 1.475054 -0.213543
v -0.221509 1.001468 0.627235
v 0.092384 -0.005590 0.909105
v 0.552515 1.207675 -0.081852
v -0.182996 0.978389 -0.714363
v 0.659233 1.448134 0.087357
v -0.433841 1.372701 0.344585
v 0.625202 1.509347 -0.416414
v 0.829366 0.306143 -0.397192
v -0.599068 1.885493 -0.172052
v -0.009499 3.914658 0.023946
v -0.615441 1.280011 0.342704
v 0.293096 1.317354 -0.665092
v -0.520526 0.598110 0.407342
v 0.603720 -0.183557 0.366584
v -0.200950 3.367648 0.262795
v 0.452217 0.427288 0.811510
v 0.640810 -0.175888 -0.420354
v -0.255128 1.228130 -0.600356
v -0.676179 -0.410957 -0.066742
v 0.659991 1.096673 0.221660
v 0.190562 0.581503 0.699918
v -0.664350 1.336215 0.064598
v 0.398109 -0.810577 -0.294228
v -0.321493 -0.733491 -0.195147
v -0.180207 1.130618 0.492191
v -0.447080 0.906350 0.465520
v -0.619695 1.773329 0.276044
v -0.433762 3.210272 -0.157753
v 0.111194 -0.511600 0.199273
v 0.069622 1.001006 0.678315
v 0.400726 3.215458 0.200997
v 0.227441 1.004936 -0.651848
v -0.757049 0.260735 0.432440
v -0.473664 0.770645 -0.596190
v 0.627493 0.031911 -0.433851
v -0.459732 0.614621 0.589756
v -0.067205 2.667767 0.527880
v -0.242356 1.537815 -0.616408
v -0.204930 1.795234 0.607697
v 0.737699 0.017612 0.086493
v 0.426104 0.250620 0.774323
v -0.366091 -0.695738 0.398869
v -0.641304 1.578476 -0.143343
v 0.036346 -0.756212 0.433918
v -0.149431 0.129241 0.717701
v 0.473059 -0.065672 0.694297
v 0.273362 2.662677 0.522167
v 0.257241 -0.869073 0.003412
v -0.271071 -0.918634 0.062417
v 0.213595 0.375367 0.750606
v -0.378908 2.093222 -0.522950
v -0.175223 3.685071 0.090726
v 0.172772 0.060147 0.803555
v -0.754551 0.490225 0.205434
v -0.650159 -0.339954 0.356399
v 0.531794 1.153023 -0.552133
v 0.177843 3.108225 -0.431606
v -0.103348 0.724717 -0.735050
v 0.518165 2.695135 -0.267601
v -0.278634 2.591541 -0.537598
v 0.495972 0.907382 0.700676
vt 0.156806 0.651155
vt 0.266872 0.722283
vt 0.257860 0.656754
vt 0.658830 0.847625
vt 0.620701 0.824664
vt 0.538194 0.882291
vt 0.239818 0.232626
vt 0.263044 0.143501
vt 0.209294 0.135041
vt 0.829170 0.075265
vt 0.810651 0.151847
vt 0.868784 0.492422
vt 0.813091 0.491756
vt 0.808614 0.516191
vt 0.356010 0.585955
vt 0.404432 0.542312
vt 0.388778 0.490144
vt 0.671471 0.355676
vt 0.619918 0.372203
vt 0.637344 0.395986
vt 0.671511 0.890099
vt 0.625314 0.913588
vt 0.645378 0.922208
vt 0.783964 0.437926
vt 0.829162 0.439881
vt 0.811460 0.402936
vt 0.809247 0.781554
vt 0.843294 0.701126
vt 0.746646 0.748497
vt 0.906067 0.684374
vt 0.319325 0.691789
vt 0.933487 0.507018
vt 0.457623 0.367101
vt 0.484151 0.445997
vt 0.535156 0.389955
vt 0.231343 0.364008
vt 0.131796 0.290710
vt 0.689483 0.745931
vt 0.659371 0.664796
vt 0.534190 0.425328
vt 0.158924 0.111247
vt 0.376056 0.638155
vt 0.600988 0.535087
vt 0.623636 0.489713
vt 0.603738 0.445909
vt 0.320667 0.537518
vt 0.492086 0.883430
vt 0.427905 0.886827
vt 0.914949 0.480189
vt 0.294602 0.441004
vt 0.752025 0.153953
vt 0.805875 0.219385
vt 0.443231 0.613658
vt 0.416531 0.459698
vt 0.373111 0.418731
vt 0.755458 0.405750
vt 0.642605 0.471707
vt 0.761119 0.505808
vt 0.748250 0.318732
vt 0.771146 0.687347
vt 0.444438 0.112938
vt 0.532516 0.298118
vt 0.707088 0.633840
vt 0.650150 0.550444
vt 0.400580 0.683510
vt 0.318104 0.247811
vt 0.412173 0.166291
vt 0.725062 0.841953
vt 0.341782 0.029206
vt 0.753341 0.278040
vt 0.785371 0.865120
vt 0.668272 0.132515
vt 0.073365 0.387397
vt 0.156904 0.105242
vt 0.309840 0.054125
vn 0.5200 0.1816 -0.8346
vn 0.5832 -0.3670 -0.7247
vn -0.8806 0.2790 0.3831
vn 0.9685 -0.2486 -0.0138
vn 0.4777 0.5349 0.6969
vn -0.2901 0.7155 -0.6355
vn -0.1160 0.7353 0.6677
vn 0.9016 -0.4182 -0.1105
vn 0.6632 -0.0301 0.7479
vn -0.2084 -0.1719 0.9628
vn -0.2765 -0.7753 0.5678
vn 0.9764 -0.1471 0.1581
vn 0.3593 -0.1148 -0.9261
vn 0.5728 -0.8149 -0.0883
vn -0.7358 -0.2325 0.6361
vn 0.0779 0.1338 -0.9879
vn 0.8519 0.3189 0.4153
vn -0.6981 -0.6392 -0.3228
vn -0.4420 0.8609 0.2517
vn -0.8217 0.5411 -0.1789
vn 0.1076 0.4384 -0.8923
vn -0.6569 0.0143 0.7538
vn -0.8492 0.0077 -0.5280
vn 0.8030 -0.5663 -0.1856
vn -0.2576 0.4877 0.8341
vn -0.4038 0.0544 -0.9132
vn 0.9157 -0.1417 -0.3761
vn 0.2258 0.6686 0.7085
vn 0.3567 -0.5186 0.7771
vn 0.6530 -0.5914 0.4731
vn 0.9118 0.0845 0.4018
vn -0.9315 0.0105 -0.3636
vn -0.0119 0.1671 0.9859
vn -0.4418 -0.0231 -0.8968
vn -0.2828 0.1991 0.9383
vn 0.5140 -0.0620 0.8555
vn -0.8350 -0.1147 -0.5382
vn -0.1520 0.2200 0.9636
vn 0.0337 0.8366 0.5467
vn -0.2580 0.2396 0.9360
vn -0.7968 -0.1459 -0.5863
vn -0.1711 -0.8429 0.5101
vn -0.9397 0.1677 0.2980
vn -0.5048 0.2336 -0.8310
vn 0.1705 0.7086 -0.6847
vn -0.6377 0.3250 0.6983
vn -0.4513 0.2077 -0.8679
vn -0.3148 0.4104 -0.8559
vn -0.1143 -0.0181 -0.9933
vn -0.9454 0.0161 -0.3256
vn 0.9181 -0.0678 0.3905
vn -0.1829 0.1396 0.9732
vn 0.9046 -0.3831 -0.1868
vn -0.0045 0.1006 0.9949
vn -0.5262 -0.1983 0.8269
vn 0.5931 -0.6444 -0.4826
vn 0.1415 0.1245 -0.9821
vn -0.1514 -0.5206 0.8403
vn -0.8437 0.1109 -0.5253
vn -0.1728 0.0009 0.9850
vn -0.8595 0.3907 0.3296
vn -0.6462 0.1911 0.7388
vn 0.0747 -0.9846 -0.1581
vn -0.6253 -0.0254 0.7799
vn 0.9146 0.0339 0.4029
vn -0.4314 -0.0382 0.9013
vn 0.3391 0.4130 0.8453
vn 0.9160 0.3500 -0.1964
vn 0.7845 -0.0191 0.6199
vn -0.1642 -0.8107 -0.5619
vn 0.8272 0.1274 0.5473
vn 0.5646 0.1423 -0.8130
vn -0.9939 0.1087 0.0165
vn 0.7016 -0.6926 -0.1676
vn 0.9342 -0.3410 -0.1045
vn 0.9346 0.0228 0.3551
vn -0.7909 -0.5887 0.1667
vn 0.6748 -0.7160 0.1787
vn -0.1894 0.6740 0.7140
vn 0.3071 -0.0810 -0.9482
vn 0.4320 -0.2912 0.8536
vn 0.7638 0.4428 -0.4697
vn -0.6832 0.5173 0.5154
vn -0.4712 -0.2586 -0.8433
vn 0.0210 0.3576 0.9336
vn 0.8589 0.4359 -0.2687
vn 0.2597 -0.2005 0.9447
vn -0.9951 -0.0638 -0.0754
vn -0.6050 -0.1581 0.7803
vn -0.5837 0.0039 0.8119
vn 0.9765 0.0439 0.2112
vn 0.9954 0.0927 -0.0224
vn -0.3219 0.4712 0.8212
vn -0.0607 0.0724 -0.9955
vn -0.3042 0.4418 -0.8440
vn -0.1096 -0.0469 -0.9929
vn -0.9427 -0.0087 -0.3334
vn -0.2148 0.1888 0.9582
vn 0.0180 0.0883 0.9959
vn -0.0355 0.0763 0.9965
vn -0.4847 -0.2885 0.8257
vn -0.8763 0.1630 -0.4533
vn -0.1667 0.0071 0.9860
vn -0.0438 0.0388 0.9983
vn -0.6576 0.1537 0.7375
vn -0.6210 0.1681 0.7656
vn 0.0987 -0.9939 0.0484
vn 0.8569 -0.2244 0.4642
vn 0.9449 0.3177 -0.0786
vn -0.1637 -0.8159 -0.5545
vn 0.8567 0.1586 0.4909
vn 0.5343 0.1526 -0.8314
vn -0.9951 0.0991 0.0052
vn -0.9854 0.1242 -0.1166
vn -0.9907 0.1352 -0.0118
vn -0.9706 0.1365 0.1983
vn -0.9950 0.0975 -0.0214
vn 0.7015 -0.6938 -0.1628
vn 0.9826 0.0682 0.1729
vn 0.9475 -0.0126 0.3195
vn 0.9355 0.0673 0.3469
vn -0.7813 -0.6059 0.1497
vn 0.2741 -0.0448 -0.9607
vn 0.3197 -0.0735 -0.9447
vn 0.3347 -0.0545 -0.9407
vn 0.3011 -0.0948 -0.9489
vn -0.7926 0.5715 0.2124
vn -0.3671 -0.3272 -0.8707
vn -0.3547 -0.0352 -0.9343
vn -0.4622 -0.1611 -0.8720
vn 0.0620 0.3811 0.9225
vn -0.9784 -0.1857 0.0913
vn -0.6124 -0.1514 0.7759
vn -0.6406 -0.1546 0.7522
vn 0.9872 0.1524 -0.0482
vn 0.9856 0.1472 0.0836
usemtl defaultMat.001
s off
f 16/1/1 65/2/1 21/3/1
f 32/4/2 3/5/2 26/6/2
f 37/7/3 24/8/3 61/9/3
f 65/2/4 16/10/4 12/11/4
f 55/12/5 62/13/5 11/14/5
f 27/15/6 8/16/6 9/17/6
f 39/18/7 34/19/7 10/20/7
f 5/21/8 32/4/8 6/22/8
f 5/21/9 6/22/9 2/23/9
f 59/24/10 50/25/10 25/26/10
f 1/27/11 53/28/11 58/29/11
f 38/30/12 53/28/12 1/27/12
f 21/3/13 65/2/13 41/31/13
f 23/32/14 38/30/14 2/23/14
f 36/33/15 31/34/15 15/35/15
f 21/3/16 69/36/16 66/37/16
f 26/6/17 2/23/17 6/22/17
f 33/38/18 58/29/18 28/39/18
f 31/34/19 20/40/19 15/35/19
f 37/7/20 61/9/20 19/41/20
f 27/15/21 41/31/21 13/42/21
f 63/43/22 22/44/22 35/45/22
f 27/15/23 9/17/23 47/46/23
f 44/47/24 17/48/24 49/49/24
f 10/20/25 15/35/25 20/40/25
f 69/36/26 47/46/26 60/50/26
f 12/11/27 14/51/27 29/52/27
f 34/19/28 15/35/28 10/20/28
f 53/28/29 55/12/29 11/14/29
f 53/28/30 23/32/30 55/12/30
f 26/6/31 44/47/31 2/23/31
f 43/53/32 52/54/32 8/16/32
f 59/24/33 62/13/33 50/25/33
f 52/54/34 18/55/34 9/17/34
f 25/26/35 30/56/35 59/24/35
f 2/23/36 38/30/36 5/21/36
f 60/50/37 47/46/37 9/17/37
f 45/57/38 59/24/38 30/56/38
f 62/13/39 54/58/39 11/14/39
f 25/26/40 70/59/40 30/56/40
f 9/17/41 18/55/41 60/50/41
f 53/28/42 51/60/42 58/29/42
f 22/44/43 45/57/43 35/45/43
f 27/15/44 13/42/44 43/53/44
f 8/16/45 52/54/45 9/17/45
f 45/57/46 10/20/46 35/45/46
f 43/53/47 8/16/47 27/15/47
f 66/37/48 37/7/48 19/41/48
f 27/15/49 21/3/49 41/31/49
f 63/43/50 43/53/50 28/39/50
f 55/12/51 23/32/51 49/49/51
f 54/58/52 59/24/52 45/57/52
f 32/4/53 26/6/53 6/22/53
f 70/59/54 56/61/54 48/62/54
f 64/63/55 11/14/55 42/64/55
f 38/30/56 23/32/56 53/28/56
f 13/42/57 41/31/57 67/65/57
f 53/28/58 11/14/58 51/60/58
f 69/36/59 18/55/59 37/7/59
f 30/56/60 39/18/60 10/20/60
f 24/8/61 37/7/61 4/66/61
f 36/33/62 46/67/62 4/66/62
f 57/68/63 58/29/63 32/4/63
f 35/45/64 20/40/64 63/43/64
f 49/49/65 50/25/65 55/12/65
f 45/57/66 42/64/66 54/58/66
f 19/41/67 56/61/67 40/69/67
f 17/48/68 12/11/68 29/70/68
f 1/27/69 57/68/69 38/71/69
f 32/4/70 33/38/70 3/5/70
f 56/61/71 7/72/71 40/69/71
f 68/73/72 21/3/72 66/37/72
f 31/34/73 52/54/73 63/43/73
f 49/49/74 2/23/74 44/47/74
f 12/11/75 16/1/75 14/51/75
f 25/26/76 49/49/76 29/52/76
f 51/60/77 28/39/77 58/29/77
f 57/68/78 32/4/78 5/21/78
f 54/58/79 42/64/79 11/14/79
f 41/31/80 17/48/80 67/65/80
f 57/68/81 5/21/81 38/30/81
f 68/73/82 66/37/82 19/74/82
f 42/64/83 22/44/83 63/43/83
f 67/65/84 3/5/84 28/39/84
f 56/61/85 24/8/85 46/67/85
f 68/73/86 19/74/86 40/69/86
f 55/12/87 50/25/87 62/13/87
f 28/39/88 42/64/88 63/43/88
f 34/19/89 48/62/89 15/35/89
f 10/20/90 20/40/90 35/45/90
f 17/48/91 29/70/91 49/49/91
f 68/73/92 7/72/92 16/1/92
f 24/8/93 19/41/93 61/9/93
f 21/3/94 47/46/94 69/36/94
f 66/37/95 69/36/95 37/7/95
f 27/15/96 47/46/96 21/3/96
f 63/43/97 52/54/97 43/53/97
f 54/58/98 62/13/98 59/24/98
f 46/67/99 48/62/99 56/61/99
f 39/18/100 70/59/100 48/62/100
f 64/63/101 51/60/101 11/14/101
f 69/36/102 60/50/102 18/55/102
f 10/20/103 45/57/103 30/56/103
f 30/56/104 70/59/104 39/18/104
f 24/8/105 4/66/105 46/67/105
f 36/33/106 48/62/106 46/67/106
f 57/68/107 1/27/107 58/29/107
f 49/49/108 25/26/108 50/25/108
f 17/48/109 65/2/109 12/11/109
f 32/4/110 58/29/110 33/38/110
f 56/61/111 70/59/111 7/72/111
f 68/73/112 16/1/112 21/3/112
f 31/34/113 36/33/113 52/54/113
f 4/66/114 37/7/114 18/55/114
f 18/55/115 52/54/115 36/33/115
f 63/43/116 20/40/116 31/34/116
f 36/33/117 4/66/117 18/55/117
f 49/49/118 23/32/118 2/23/118
f 14/51/119 7/72/119 29/52/119
f 70/59/120 25/26/120 29/52/120
f 29/52/121 7/72/121 70/59/121
f 51/60/122 64/63/122 28/39/122
f 44/47/123 26/6/123 3/5/123
f 3/5/124 67/65/124 44/47/124
f 41/31/125 65/2/125 17/48/125
f 44/47/126 67/65/126 17/48/126
f 42/64/127 45/57/127 22/44/127
f 28/39/128 43/53/128 67/65/128
f 13/42/129 67/65/129 43/53/129
f 3/5/130 33/38/130 28/39/130
f 56/61/131 19/41/131 24/8/131
f 28/39/132 64/63/132 42/64/132
f 36/33/133 15/35/133 48/62/133
f 34/19/134 39/18/134 48/62/134
f 14/51/135 16/1/135 7/72/135
f 68/73/136 40/75/136 7/72/136
